<?xml version="1.0"?>
<svg xmlns:rdf="http://www.w3.org/1999/02/22-rdf-syntax-ns#" xmlns="http://www.w3.org/2000/svg" xmlns:cc="http://creativecommons.org/ns#" xmlns:dc="http://purl.org/dc/elements/1.1/" xmlns:svg="http://www.w3.org/2000/svg" id="svg2" viewBox="0 0 167.83 55.332" version="1.0">
  <g id="layer1" transform="translate(-227.51 -167.55)">
    <path id="path2220" d="m229.52 196.33c-0.0871-8.4109 0.63721-14.117 2.9234-14.617l11.848-1.5386c8.3816-3.8703 17.117-8.6831 24.772-10.617 5.8792-1.1707 12.1-1.8864 18.771-2.0002 13.425 0.21409 28.358-0.70172 37.85 2.4618 9.0416 4.1758 17.949 8.6206 26.465 13.848 11.478 0.78321 34.907 3.9761 38.312 7.6932 1.6978 2.2797 3.0493 4.7325 3.6927 7.5393 1.4878 0.61504 1.3828 2.8229 0.76932 5.5391l-0.15386 5.5391-5.693 2.308-11.232 1.3848-2.9234 0.76932c-4.2378 9.9421-19.973 8.7095-24.31-0.46159l-3.5389 0.61546-63.084-0.61546-0.76932 1.077-4.9236-0.15386c-3.3049 10.149-22.171 11.078-25.08-1.3848h-2.4618l-7.3855-1.077-11.232-1.5386c-3.0619-1.8169-4.3384-3.1874-4.6159-4.3082l0.76931-1.077-0.61545-6.1546c0.41416-2.0835 0.79405-2.7525 1.8464-3.2311z" fill-rule="evenodd"/>
  </g>
  <metadata>
    <rdf:RDF>
      <cc:Work>
        <dc:format>image/svg+xml</dc:format>
        <dc:type rdf:resource="http://purl.org/dc/dcmitype/StillImage"/>
        <cc:license rdf:resource="http://creativecommons.org/licenses/publicdomain/"/>
        <dc:publisher>
          <cc:Agent rdf:about="http://openclipart.org/">
            <dc:title>Openclipart</dc:title>
          </cc:Agent>
        </dc:publisher>
        <dc:title>Skoda Octavia outer silhouette</dc:title>
        <dc:date>2010-05-27T11:53:01</dc:date>
        <dc:description>Skoda Octavia outer silhouette</dc:description>
        <dc:source>http://openclipart.org/detail/63241/skoda-octavia-outer-silhouette-by-ingis</dc:source>
        <dc:creator>
          <cc:Agent>
            <dc:title>ingis</dc:title>
          </cc:Agent>
        </dc:creator>
        <dc:subject>
          <rdf:Bag>
            <rdf:li>car</rdf:li>
            <rdf:li>clip art</rdf:li>
            <rdf:li>clipart</rdf:li>
            <rdf:li>image</rdf:li>
            <rdf:li>media</rdf:li>
            <rdf:li>octavia</rdf:li>
            <rdf:li>public domain</rdf:li>
            <rdf:li>sedan</rdf:li>
            <rdf:li>silhouette</rdf:li>
            <rdf:li>skoda</rdf:li>
            <rdf:li>svg</rdf:li>
            <rdf:li>transportation</rdf:li>
          </rdf:Bag>
        </dc:subject>
      </cc:Work>
      <cc:License rdf:about="http://creativecommons.org/licenses/publicdomain/">
        <cc:permits rdf:resource="http://creativecommons.org/ns#Reproduction"/>
        <cc:permits rdf:resource="http://creativecommons.org/ns#Distribution"/>
        <cc:permits rdf:resource="http://creativecommons.org/ns#DerivativeWorks"/>
      </cc:License>
    </rdf:RDF>
  </metadata>
</svg>
